<svg xmlns="http://www.w3.org/2000/svg" version="1.1" xmlns:xlink="http://www.w3.org/1999/xlink" xmlns:svgjs="http://svgjs.dev/svgjs" width="1500" height="1500" viewBox="0 0 1500 1500"><rect width="1500" height="1500" fill="#000000"></rect><g transform="matrix(0.6666666666666666,0,0,0.6666666666666666,248.2337339628882,242.36774193548388)"><svg viewBox="0 0 245 248" data-background-color="#575c5f" preserveAspectRatio="xMidYMid meet" height="1518" width="1500" xmlns="http://www.w3.org/2000/svg" xmlns:xlink="http://www.w3.org/1999/xlink"><g id="tight-bounds" transform="matrix(1,0,0,1,0.4327351790923899,0.4000000000000057)"><svg viewBox="0 0 244.13452964181525 247.2" height="247.2" width="244.13452964181525"><g><svg viewBox="0 0 395.52000000000004 400.48633900107495" height="247.2" width="244.13452964181525"><g transform="matrix(1,0,0,1,0,243.98888386510066)"><svg viewBox="0 0 395.52000000000004 156.49745513597432" height="156.49745513597432" width="395.52000000000004"><g id="textblocktransform"><svg viewBox="0 0 395.52000000000004 156.49745513597432" height="156.49745513597432" width="395.52000000000004" id="textblock"><g><svg viewBox="0 0 395.52000000000004 117.37491683688359" height="117.37491683688359" width="395.52000000000004"><g transform="matrix(1,0,0,1,0,0)"><svg width="395.52000000000004" viewBox="1 -34.85 171.33 50.85" height="117.37491683688359" data-palette-color="#dedad7"><path d="M6.25-12.7L6.25-12.7 6.3-11.45Q6.3-11.15 6.7-11.15L6.7-11.15Q8.3-11.3 9.5-11.98 10.7-12.65 11.3-13.5L11.3-13.5Q12.5-15.35 12.6-16.7L12.6-16.7 12.65-17.3Q12.65-20 10.5-20L10.5-20Q8.9-20 7.9-18.6L7.9-18.6Q6.25-16.4 6.25-12.7ZM17.15-6.05L17.15-6.05Q17.15-4.15 16.38-2.73 15.6-1.3 14.63-0.63 13.65 0.05 12.35 0.45L12.35 0.45Q10.7 0.95 9.2 0.95L9.2 0.95Q5 0.95 3-2.2 1-5.35 1-10.23 1-15.1 3.48-18.9 5.95-22.7 10.9-22.7L10.9-22.7Q15.4-22.7 17-19.55L17-19.55Q17.65-18.35 17.65-17.28 17.65-16.2 17.55-15.58 17.45-14.95 16.85-13.7 16.25-12.45 15.25-11.45 14.25-10.45 12.1-9.55 9.95-8.65 7.05-8.35L7.05-8.35Q6.65-8.35 6.65-8L6.65-8Q6.65-7.55 6.98-6.68 7.3-5.8 7.7-5.2L7.7-5.2Q8.8-3.8 10.95-3.8L10.95-3.8Q13.1-3.8 14.6-5.2L14.6-5.2Q15.4-5.95 15.9-7.05L15.9-7.05Q16.1-7.45 16.43-7.45 16.75-7.45 16.95-6.9 17.15-6.35 17.15-6.05ZM19.4-4.9L19.4-4.9 20.4-4.75Q23.35-4.75 26.3-9.8L26.3-9.8Q26.45-10.05 26.7-10.4L26.7-10.4Q24.5-14.45 22.87-16.85 21.25-19.25 20.7-19.6L20.7-19.6 20.2-20Q19.5-20.3 19.5-20.75L19.5-20.75Q19.5-21.4 21.32-22.15 23.15-22.9 24.75-23L24.75-23Q25.6-23.05 26.35-21.75L26.35-21.75Q27.75-19.7 29.75-15.5L29.75-15.5 29.75-15.4Q32.1-19.4 32.75-21.05L32.75-21.05Q32.75-21.8 34-22.2 35.25-22.6 37.1-22.6 38.95-22.6 38.95-22L38.95-22Q38.95-21.75 38.5-21.45L38.5-21.45Q38.2-21.3 37.62-20.85 37.05-20.4 35.2-18.23 33.35-16.05 31.45-12.9L31.45-12.9Q31.35-12.75 31.3-12.6L31.3-12.6Q34.2-7.35 34.75-6.58 35.3-5.8 35.62-5.3 35.95-4.8 36.92-3.85 37.9-2.9 38.77-2.65 39.65-2.4 39.65-1.95L39.65-1.95Q39.65-1.25 37.85-0.28 36.05 0.7 34.5 0.7L34.5 0.7Q33.4 0.7 32.8-0.05L32.8-0.05Q31.75-1.3 28.2-7.5L28.2-7.5Q25.1-2.35 24.5-1.53 23.9-0.7 23-0.05 22.1 0.6 21.02 0.6 19.95 0.6 19.27-0.1 18.6-0.8 18.5-1.5L18.5-1.5 18.4-2.2Q18.4-4.9 19.4-4.9ZM56.35-5.75L56.35-5.75Q56.35-2.9 54.07-1.03 51.8 0.85 48.65 0.85L48.65 0.85Q44.05 0.85 41.9-1.93 39.75-4.7 39.75-9.45L39.75-9.45Q39.75-14.5 42-18.4L42-18.4Q43.1-20.4 45.15-21.55 47.2-22.7 49.95-22.7L49.95-22.7Q54.1-22.7 55.8-19.9L55.8-19.9Q56.5-18.75 56.5-17.2L56.5-17.2Q56.5-14.8 54.5-13.6L54.5-13.6Q53.7-13.15 53.02-13.15 52.35-13.15 51.92-13.23 51.5-13.3 50.8-13.9 50.1-14.5 50.1-15.55L50.1-15.55Q50.15-16.1 50.95-16.45L50.95-16.45Q51.7-16.9 51.7-18.05L51.7-18.05Q51.7-20 49.3-20L49.3-20Q48.7-20 47.87-19.48 47.05-18.95 46.5-18.13 45.95-17.3 45.47-15.53 45-13.75 45-12.13 45-10.5 45.12-9.68 45.25-8.85 45.67-7.43 46.1-6 47.27-5.1 48.45-4.2 50.2-4.2L50.2-4.2Q52.3-4.2 53.9-5.95L53.9-5.95Q54.55-6.65 54.95-7.65L54.95-7.65Q55.15-8.05 55.45-8.05L55.45-8.05Q55.9-8.05 56.12-7.23 56.35-6.4 56.35-5.75ZM64.94-26.85L64.94-26.85 64.89-22Q64.89-21.7 65.09-21.7 65.29-21.7 65.49-21.85L65.49-21.85Q66.74-22.7 69.44-22.7L69.44-22.7Q73.99-22.7 75.74-19.6L75.74-19.6Q76.39-18.45 76.39-16.55 76.39-14.65 76.17-11.3 75.94-7.95 75.94-6.55L75.94-6.55Q75.94-1.65 77.34-0.05L77.34-0.05Q77.59 0.2 77.59 0.45L77.59 0.45Q77.59 0.95 75.44 0.95L75.44 0.95Q69.64 0.95 69.64-4.45L69.64-4.45Q69.64-6.55 70.64-10.35 71.64-14.15 71.64-15.95 71.64-17.75 70.79-18.73 69.94-19.7 68.44-19.7 66.94-19.7 66.07-19.05 65.19-18.4 64.99-17.7L64.99-17.7 64.84-17.05Q64.79-16.1 64.79-11 64.79-5.9 65.04-4.38 65.29-2.85 65.29-2.65L65.29-2.65Q65.29-1.2 63.34-0.08 61.39 1.05 59.49 1.05L59.49 1.05Q58.79 1.05 58.79 0.25L58.79 0.25 58.89-0.7Q59.99-9.1 59.99-18.9L59.99-18.9Q59.99-22.7 59.69-26.6L59.69-26.6 59.64-27.7Q59.54-29.1 59.07-30.1 58.59-31.1 58.19-31.4L58.19-31.4 57.74-31.65Q57.39-31.85 57.39-32.1L57.39-32.1Q57.39-32.8 59.74-33.83 62.09-34.85 63.37-34.85 64.64-34.85 64.74-34.3L64.74-34.3Q64.94-31.75 64.94-26.85ZM95.79-15L95.79-15 95.69-8.6Q95.69-1.95 97.14-0.6L97.14-0.6Q97.34-0.4 97.34-0.15L97.34-0.15Q97.34 0.6 94.12 0.6 90.89 0.6 90.69-1.3L90.69-1.3Q90.64-1.75 90.64-3.15L90.64-3.15 90.84-11.15Q90.84-11.5 90.44-11.5L90.44-11.5Q88.04-11.5 85.94-10.15 83.84-8.8 83.84-6.7L83.84-6.7Q83.84-5.6 84.44-4.85 85.04-4.1 85.92-4.1 86.79-4.1 87.37-4.45 87.94-4.8 88.04-4.85L88.04-4.85Q88.89-4.75 88.89-3.08 88.89-1.4 87.34-0.38 85.79 0.65 84.09 0.65 82.39 0.65 81.17 0.05 79.94-0.55 79.39-1.3 78.84-2.05 78.49-3L78.49-3Q78.14-4.15 78.14-5L78.14-5Q78.14-8.5 80.34-10.6 82.54-12.7 85.99-13.6L85.99-13.6Q90.54-14.5 90.74-15.25L90.74-15.25Q90.89-15.8 90.89-17.1L90.89-17.1Q90.89-19.75 88.19-19.75L88.19-19.75Q87.04-19.75 86.14-19.03 85.24-18.3 85.24-17.2L85.24-17.2 85.54-16Q85.44-15.15 83.74-15L83.74-15 83.19-14.95Q81.69-14.95 80.81-15.7 79.94-16.45 79.94-17.7L79.94-17.7Q79.94-18.5 80.47-19.48 80.99-20.45 81.79-21.05 82.59-21.65 84.27-22.13 85.94-22.6 87.49-22.6 89.04-22.6 89.89-22.5 90.74-22.4 92.22-22.03 93.69-21.65 94.67-20.6 95.64-19.55 95.72-18.38 95.79-17.2 95.79-15ZM98.84 0.35L98.84 0.35Q99.74-5.05 99.74-12.6 99.74-20.15 99.29-22.4L99.29-22.4Q99.29-23.05 100.79-23.05L100.79-23.05Q103.09-23.05 103.84-21.3L103.84-21.3Q103.89-21.15 104.09-21.15 104.29-21.15 104.39-21.25L104.39-21.25Q105.94-22.85 109.19-22.85 112.44-22.85 114.34-21.2 116.24-19.55 116.24-16.4L116.24-16.4Q116.24-14.5 115.91-11 115.59-7.5 115.59-5.8L115.59-5.8Q115.59-1.75 116.94 0.05L116.94 0.05Q117.14 0.3 117.14 0.55L117.14 0.55Q117.14 1.2 115.74 1.2L115.74 1.2Q109.54 1.2 109.54-4.3L109.54-4.3Q109.54-6.4 110.49-10.15 111.44-13.9 111.44-15.85L111.44-15.85Q111.44-19.85 108.14-19.85L108.14-19.85Q106.54-19.85 105.71-18.9 104.89-17.95 104.79-16.73 104.69-15.5 104.69-12.1L104.69-12.1Q104.69-6.9 105.04-3.05L105.04-3.05 105.14-1.95Q105.14-0.55 103.31 0.23 101.49 1 100.16 1 98.84 1 98.84 0.35ZM122.09-20.18Q123.19-21.3 124.99-22.08 126.79-22.85 128.44-22.85 130.09-22.85 131.79-22.1L131.79-22.1Q131.99-22.1 132.09-22.2L132.09-22.2Q133.39-23.5 135.89-23.5L135.89-23.5Q136.49-23.5 136.49-22.95L136.49-22.95Q136.49-22.9 136.39-22.5 136.29-22.1 136.14-21.33 135.99-20.55 135.89-19.45L135.89-19.45Q135.54-16.6 135.51-13.15 135.49-9.7 135.49-6.25L135.49-6.25 135.64 4.25Q135.64 9.3 133.04 12.65L133.04 12.65Q131.99 14 129.86 15 127.74 16 124.89 16L124.89 16Q124.24 15.6 124.24 15.2 124.24 14.8 124.79 14.55L124.79 14.55Q127.94 13.1 129.29 7.68 130.64 2.25 130.64-8.8L130.64-8.8 130.54-15.8 130.39-19.2Q130.39-19.65 128.99-19.85L128.99-19.85Q127.19-19.85 125.96-18.68 124.74-17.5 124.29-15.6L124.29-15.6Q123.49-12.55 123.49-10.33 123.49-8.1 124.21-6.4 124.94-4.7 126.74-4.7L126.74-4.7Q127.24-4.7 127.66-4.9 128.09-5.1 128.24-5.1L128.24-5.1Q128.74-5.1 128.74-4.1 128.74-3.1 128.59-2.48 128.44-1.85 127.99-1.1L127.99-1.1Q126.99 0.55 124.09 0.55L124.09 0.55Q121.19 0.55 119.94-1.55L119.94-1.55Q118.64-3.7 118.44-5.4L118.44-5.4Q118.14-7.95 118.14-8.75 118.14-9.55 118.16-10.03 118.19-10.5 118.41-11.93 118.64-13.35 119.01-14.63 119.39-15.9 120.19-17.48 120.99-19.05 122.09-20.18ZM143.48-12.7L143.48-12.7 143.53-11.45Q143.53-11.15 143.93-11.15L143.93-11.15Q145.53-11.3 146.73-11.98 147.93-12.65 148.53-13.5L148.53-13.5Q149.73-15.35 149.83-16.7L149.83-16.7 149.88-17.3Q149.88-20 147.73-20L147.73-20Q146.13-20 145.13-18.6L145.13-18.6Q143.48-16.4 143.48-12.7ZM154.38-6.05L154.38-6.05Q154.38-4.15 153.61-2.73 152.83-1.3 151.86-0.63 150.88 0.05 149.58 0.45L149.58 0.45Q147.93 0.95 146.43 0.95L146.43 0.95Q142.23 0.95 140.23-2.2 138.23-5.35 138.23-10.23 138.23-15.1 140.71-18.9 143.18-22.7 148.13-22.7L148.13-22.7Q152.63-22.7 154.23-19.55L154.23-19.55Q154.88-18.35 154.88-17.28 154.88-16.2 154.78-15.58 154.68-14.95 154.08-13.7 153.48-12.45 152.48-11.45 151.48-10.45 149.33-9.55 147.18-8.65 144.28-8.35L144.28-8.35Q143.88-8.35 143.88-8L143.88-8Q143.88-7.55 144.21-6.68 144.53-5.8 144.93-5.2L144.93-5.2Q146.03-3.8 148.18-3.8L148.18-3.8Q150.33-3.8 151.83-5.2L151.83-5.2Q152.63-5.95 153.13-7.05L153.13-7.05Q153.33-7.45 153.66-7.45 153.98-7.45 154.18-6.9 154.38-6.35 154.38-6.05ZM172.33-6.85L172.33-6.85Q172.33-4.7 171.51-3.1 170.68-1.5 169.63-0.75 168.58 0 167.13 0.45L167.13 0.45Q165.23 1.05 163.68 1.05L163.68 1.05Q160.43 1.05 158.28-0.23 156.13-1.5 156.13-4.3L156.13-4.3Q156.13-5.95 157.03-7L157.03-7Q158.43-8.55 160.38-8.55L160.38-8.55Q160.98-8.55 160.98-8L160.98-8Q160.98-7.95 160.76-7.23 160.53-6.5 160.53-5.4 160.53-4.3 161.41-3.45 162.28-2.6 163.53-2.6 164.78-2.6 165.53-3.03 166.28-3.45 166.58-4.1L166.58-4.1Q167.03-5 167.03-5.8L167.03-5.8Q167.03-7.25 165.58-8.3 164.13-9.35 162.38-9.95 160.63-10.55 159.18-11.95 157.73-13.35 157.73-15.45L157.73-15.45Q157.73-19.05 160.01-20.85 162.28-22.65 166.18-22.65L166.18-22.65Q167.88-22.65 169.76-22.18 171.63-21.7 171.63-20.58 171.63-19.45 171.26-18.5 170.88-17.55 170.33-17.55L170.33-17.55Q170.03-17.55 169.93-17.78 169.83-18 169.58-18.3 169.33-18.6 168.38-19.07 167.43-19.55 166.76-19.55 166.08-19.55 165.86-19.53 165.63-19.5 165.08-19.38 164.53-19.25 164.08-19L164.08-19Q162.93-18.35 162.93-17.1L162.93-17.1Q162.93-16.3 163.28-15.93 163.63-15.55 163.83-15.35 164.03-15.15 164.53-14.88 165.03-14.6 165.23-14.5 165.43-14.4 166.13-14.08 166.83-13.75 167.03-13.65L167.03-13.65Q172.33-11.15 172.33-6.85Z" opacity="1" transform="matrix(1,0,0,1,0,0)" fill="#ffffff" class="wordmark-text-0" data-fill-palette-color="primary" id="text-0"></path></svg></g></svg></g><g transform="matrix(1,0,0,1,75.54432000000003,145.0843177040677)"><svg viewBox="0 0 244.43135999999998 11.413137431906614" height="11.413137431906614" width="244.43135999999998"><g transform="matrix(1,0,0,1,0,0)"><svg width="244.43135999999998" viewBox="4.5 -32.05 693.82 32.4" height="11.413137431906614" data-palette-color="#dedad7"><path d="M20.35-3.35L20.65-3 20.3 0 4.5 0 4.75-9.65 4.5-32.05 8.6-32.05 8.35-10 8.5-3.35 20.35-3.35ZM35.95-24.9L44.7 0 40.95 0 40.35-2.7 39.05-6.4 33.1-6.45 27.8-6.4 26.45-2.9 25.75 0 22.05 0 31.65-24.9 35.95-24.9ZM33.4-9.4L38-9.45 33.85-21.25 33.55-21.25 29-9.45 33.4-9.4ZM71.7-25L71.55-7.45 71.59 0 67.59 0 54.5-19 54.25-19 54.2-8.3 54.3 0 50.9 0 51.05-7.35 50.95-24.9 54.9-24.9 68-5.9 68.34-5.9 68.25-24.75 71.7-25ZM90.64-25.15Q94.54-25.15 98.49-23.45L98.49-23.45 97.24-19.85 96.79-19.85Q94.94-21.05 93.39-21.53 91.84-22 90.04-22L90.04-22Q85.79-22 83.67-19.6 81.54-17.2 81.54-12.1L81.54-12.1Q81.54-7.2 83.49-5.03 85.44-2.85 89.69-2.85L89.69-2.85Q90.94-2.85 92.09-3.08 93.24-3.3 94.89-3.9L94.89-3.9 94.89-6.4 94.84-9.95 98.29-10.2 98.29-1.2Q93.24 0.3 89.54 0.3L89.54 0.3Q83.64 0.3 80.62-2.88 77.59-6.05 77.59-11.95L77.59-11.95Q77.59-18.35 81.02-21.75 84.44-25.15 90.64-25.15L90.64-25.15ZM125.44-24.9L125.29-12.25 125.29-8.65Q125.34-4.4 122.72-2.05 120.09 0.3 115.19 0.3L115.19 0.3Q110.34 0.3 107.79-2.02 105.24-4.35 105.34-8.65L105.34-8.65 105.39-12.45 105.34-24.9 109.09-24.9 108.89-9.25Q108.84-6.1 110.47-4.5 112.09-2.9 115.34-2.9L115.34-2.9Q118.54-2.9 120.19-4.5 121.84-6.1 121.79-9.25L121.79-9.25 121.64-24.9 125.44-24.9ZM143.39-24.9L152.14 0 148.39 0 147.79-2.7 146.49-6.4 140.54-6.45 135.24-6.4 133.89-2.9 133.19 0 129.49 0 139.09-24.9 143.39-24.9ZM140.84-9.4L145.44-9.45 141.29-21.25 140.99-21.25 136.44-9.45 140.84-9.4ZM168.44-25.15Q172.34-25.15 176.29-23.45L176.29-23.45 175.04-19.85 174.59-19.85Q172.74-21.05 171.19-21.53 169.64-22 167.84-22L167.84-22Q163.59-22 161.46-19.6 159.34-17.2 159.34-12.1L159.34-12.1Q159.34-7.2 161.29-5.03 163.24-2.85 167.49-2.85L167.49-2.85Q168.74-2.85 169.89-3.08 171.04-3.3 172.69-3.9L172.69-3.9 172.69-6.4 172.64-9.95 176.09-10.2 176.09-1.2Q171.04 0.3 167.34 0.3L167.34 0.3Q161.44 0.3 158.41-2.88 155.39-6.05 155.39-11.95L155.39-11.95Q155.39-18.35 158.81-21.75 162.24-25.15 168.44-25.15L168.44-25.15ZM192.48-3L199.13-3.2 199.43-2.9 199.08 0 183.93 0 184.08-7.5 183.93-24.9 199.18-24.9 199.43-24.6 199.13-21.7 192.83-21.9 187.63-21.85 187.58-14.3 192.53-14.25 196.88-14.4 197.13-14.05 196.83-11.1 192.23-11.25 187.58-11.2 187.53-7.8 187.58-3.05 192.48-3ZM222.48-3L229.13-3.2 229.43-2.9 229.08 0 213.93 0 214.08-7.5 213.93-24.9 229.18-24.9 229.43-24.6 229.13-21.7 222.83-21.9 217.63-21.85 217.58-14.3 222.53-14.25 226.88-14.4 227.13-14.05 226.83-11.1 222.23-11.25 217.58-11.2 217.53-7.8 217.58-3.05 222.48-3ZM254.78-24.9L246.43-13 255.38 0 250.88 0 249.73-2.15 243.93-10.1 237.88-1.95 236.78 0 232.83 0 241.73-12.5 233.08-24.9 237.73-24.9 238.78-22.8 244.23-15.35 249.68-22.85 250.73-24.9 254.78-24.9ZM270.27-25.15Q274.42-25.15 277.47-23.4L277.47-23.4 276.77-19.95 276.32-19.8Q275.07-20.85 273.42-21.45 271.77-22.05 269.87-22.05L269.87-22.05Q266.17-22.05 264.22-19.68 262.27-17.3 262.27-12.6L262.27-12.6Q262.27-7.85 264.22-5.35 266.17-2.85 269.87-2.85L269.87-2.85Q271.67-2.85 273.5-3.48 275.32-4.1 276.77-5.15L276.77-5.15 277.22-5 276.87-1.55Q273.47 0.3 269.72 0.3L269.72 0.3Q264.22 0.3 261.27-2.98 258.32-6.25 258.32-12.3L258.32-12.3Q258.32-18.45 261.45-21.8 264.57-25.15 270.27-25.15L270.27-25.15ZM304.47-24.9L304.32-7.8 304.42 0 300.72 0 300.87-7.5 300.82-10.9 287.27-10.85 287.22-7.8 287.32 0 283.62 0 283.77-7.5 283.62-24.9 287.37-24.9 287.27-14.2 294.02-14.15 300.82-14.2 300.72-24.9 304.47-24.9ZM324.07-24.9L332.82 0 329.07 0 328.47-2.7 327.17-6.4 321.22-6.45 315.92-6.4 314.57-2.9 313.87 0 310.17 0 319.77-24.9 324.07-24.9ZM321.52-9.4L326.12-9.45 321.97-21.25 321.67-21.25 317.12-9.45 321.52-9.4ZM359.82-25L359.67-7.45 359.72 0 355.72 0 342.62-19 342.37-19 342.32-8.3 342.42 0 339.02 0 339.17-7.35 339.07-24.9 343.02-24.9 356.12-5.9 356.47-5.9 356.37-24.75 359.82-25ZM378.76-25.15Q382.66-25.15 386.61-23.45L386.61-23.45 385.36-19.85 384.91-19.85Q383.06-21.05 381.51-21.53 379.96-22 378.16-22L378.16-22Q373.91-22 371.79-19.6 369.66-17.2 369.66-12.1L369.66-12.1Q369.66-7.2 371.61-5.03 373.56-2.85 377.81-2.85L377.81-2.85Q379.06-2.85 380.21-3.08 381.36-3.3 383.01-3.9L383.01-3.9 383.01-6.4 382.96-9.95 386.41-10.2 386.41-1.2Q381.36 0.3 377.66 0.3L377.66 0.3Q371.76 0.3 368.74-2.88 365.71-6.05 365.71-11.95L365.71-11.95Q365.71-18.35 369.14-21.75 372.56-25.15 378.76-25.15L378.76-25.15ZM402.81-3L409.46-3.2 409.76-2.9 409.41 0 394.26 0 394.41-7.5 394.26-24.9 409.51-24.9 409.76-24.6 409.46-21.7 403.16-21.9 397.96-21.85 397.91-14.3 402.86-14.25 407.21-14.4 407.46-14.05 407.16-11.1 402.56-11.25 397.91-11.2 397.86-7.8 397.91-3.05 402.81-3ZM423.36-25.15Q426.41-25.15 429.46-23.95L429.46-23.95 428.81-20.25 428.21-20.1Q426.81-21.2 425.56-21.73 424.31-22.25 422.96-22.25L422.96-22.25Q420.81-22.25 419.56-21.13 418.31-20 418.31-18.55L418.31-18.55Q418.31-17.1 419.53-16.2 420.76-15.3 423.31-14.2L423.31-14.2Q425.56-13.2 426.88-12.4 428.21-11.6 429.18-10.28 430.16-8.95 430.16-7.05L430.16-7.05Q430.16-5.1 429.11-3.43 428.06-1.75 426.03-0.73 424.01 0.3 421.21 0.3L421.21 0.3Q419.46 0.3 417.53-0.13 415.61-0.55 413.96-1.4L413.96-1.4 414.41-5.35 414.91-5.55Q416.31-4.15 418.18-3.38 420.06-2.6 421.66-2.6L421.66-2.6Q423.76-2.6 425.11-3.73 426.46-4.85 426.46-6.45L426.46-6.45Q426.46-7.95 425.23-8.85 424.01-9.75 421.41-10.95L421.41-10.95Q419.26-11.9 417.88-12.7 416.51-13.5 415.56-14.83 414.61-16.15 414.61-18.05L414.61-18.05Q414.61-20.05 415.68-21.65 416.76-23.25 418.73-24.2 420.71-25.15 423.36-25.15L423.36-25.15ZM449.25-24.9L449.1-7.8 449.2 0 445.5 0 445.65-7.5 445.5-24.9 449.25-24.9ZM479.25-25L479.1-7.45 479.15 0 475.15 0 462.05-19 461.8-19 461.75-8.3 461.85 0 458.45 0 458.6-7.35 458.5-24.9 462.45-24.9 475.55-5.9 475.9-5.9 475.8-24.75 479.25-25ZM505.2-8.7L505.15-7.15 505.3 0 501.55 0 501.75-7.15 501.7-8.7 493.25-24.9 497.35-24.9 497.85-23.45 503.45-12.75 503.7-12.75 509.8-23.3 510.45-24.9 514.45-24.9 505.2-8.7ZM528.24-25.2Q533.69-25.2 536.62-22 539.54-18.8 539.54-12.95L539.54-12.95Q539.54-6.6 536.42-3.13 533.29 0.35 527.49 0.35L527.49 0.35Q522.09 0.35 519.14-2.93 516.19-6.2 516.19-12.25L516.19-12.25Q516.19-18.45 519.34-21.83 522.49-25.2 528.24-25.2L528.24-25.2ZM527.89-22.05Q523.94-22.05 522.02-19.8 520.09-17.55 520.09-12.7L520.09-12.7Q520.09-7.5 521.99-5.15 523.89-2.8 527.79-2.8L527.79-2.8Q531.79-2.8 533.74-5.1 535.69-7.4 535.69-12.3L535.69-12.3Q535.69-17.35 533.77-19.7 531.84-22.05 527.89-22.05L527.89-22.05ZM565.59-24.9L565.44-12.25 565.44-8.65Q565.49-4.4 562.87-2.05 560.24 0.3 555.34 0.3L555.34 0.3Q550.49 0.3 547.94-2.02 545.39-4.35 545.49-8.65L545.49-8.65 545.54-12.45 545.49-24.9 549.24-24.9 549.04-9.25Q548.99-6.1 550.62-4.5 552.24-2.9 555.49-2.9L555.49-2.9Q558.69-2.9 560.34-4.5 561.99-6.1 561.94-9.25L561.94-9.25 561.79-24.9 565.59-24.9ZM585.19-10.05Q588.24-5.4 591.94-0.9L591.94-0.9 591.89-0.4Q589.79 0.25 588.44 0.35L588.44 0.35 587.79-0.05Q583.99-5.8 582.04-9.1L582.04-9.1 577.34-9.05 577.34-7.8 577.44 0 573.74 0 573.89-7.5 573.74-24.9 582.24-24.95Q586.19-24.95 588.31-23.1 590.44-21.25 590.44-17.75L590.44-17.75Q590.44-15.2 589.06-13.2 587.69-11.2 585.19-10.05L585.19-10.05ZM577.44-21.9L577.39-12.15 582.09-12Q586.54-13.25 586.54-17.45L586.54-17.45Q586.54-19.65 585.24-20.75 583.94-21.85 581.29-21.95L581.29-21.95 577.44-21.9ZM617.43-24.9L626.18 0 622.43 0 621.83-2.7 620.53-6.4 614.58-6.45 609.28-6.4 607.93-2.9 607.23 0 603.53 0 613.13-24.9 617.43-24.9ZM614.88-9.4L619.48-9.45 615.33-21.25 615.03-21.25 610.48-9.45 614.88-9.4ZM643.83-10.05Q646.88-5.4 650.58-0.9L650.58-0.9 650.53-0.4Q648.43 0.25 647.08 0.35L647.08 0.35 646.43-0.05Q642.63-5.8 640.68-9.1L640.68-9.1 635.98-9.05 635.98-7.8 636.08 0 632.38 0 632.53-7.5 632.38-24.9 640.88-24.95Q644.83-24.95 646.95-23.1 649.08-21.25 649.08-17.75L649.08-17.75Q649.08-15.2 647.7-13.2 646.33-11.2 643.83-10.05L643.83-10.05ZM636.08-21.9L636.03-12.15 640.73-12Q645.18-13.25 645.18-17.45L645.18-17.45Q645.18-19.65 643.88-20.75 642.58-21.85 639.93-21.95L639.93-21.95 636.08-21.9ZM665.73-3L672.38-3.2 672.68-2.9 672.33 0 657.18 0 657.33-7.5 657.18-24.9 672.43-24.9 672.68-24.6 672.38-21.7 666.08-21.9 660.88-21.85 660.83-14.3 665.78-14.25 670.13-14.4 670.38-14.05 670.08-11.1 665.48-11.25 660.83-11.2 660.78-7.8 660.83-3.05 665.73-3ZM689.57-24.9L698.32 0 694.57 0 693.97-2.7 692.67-6.4 686.72-6.45 681.42-6.4 680.07-2.9 679.37 0 675.67 0 685.27-24.9 689.57-24.9ZM687.02-9.4L691.62-9.45 687.47-21.25 687.17-21.25 682.62-9.45 687.02-9.4Z" opacity="1" transform="matrix(1,0,0,1,0,0)" fill="#ffffff" class="slogan-text-1" data-fill-palette-color="secondary" id="text-1"></path></svg></g></svg></g></svg></g></svg></g><g transform="matrix(1,0,0,1,89.62025850104176,0)"><svg viewBox="0 0 216.27948299791652 216.27948299791652" height="216.27948299791652" width="216.27948299791652"><g><svg></svg></g><g id="icon-0"><svg viewBox="0 0 216.27948299791652 216.27948299791652" height="216.27948299791652" width="216.27948299791652"><g><path transform="scale(2.16279,2.16279)" d="M30 100c-16.569 0-30-13.431-30-30v-40c0-16.569 13.431-30 30-30h40c16.569 0 30 13.431 30 30v40c0 16.569-13.431 30-30 30z" fill="#ffffff" fill-rule="nonzero" stroke="none" stroke-width="1" stroke-linecap="butt" stroke-linejoin="miter" stroke-miterlimit="10" stroke-dasharray="" stroke-dashoffset="0" font-family="none" font-weight="none" font-size="none" text-anchor="none" style="mix-blend-mode: normal" data-fill-palette-color="accent"></path></g><g transform="matrix(1,0,0,1,43.25589659958331,44.25978118549675)"><svg viewBox="0 0 129.7676897987499 127.75992062692302" height="127.75992062692302" width="129.7676897987499"><g><svg xmlns="http://www.w3.org/2000/svg" xmlns:xlink="http://www.w3.org/1999/xlink" version="1.1" x="0" y="0" viewBox="2 2.3 97.00079895923996 95.5" enable-background="new 0 0 100 100" xml:space="preserve" height="127.75992062692302" width="129.7676897987499" class="icon-dxe-0" data-fill-palette-color="quaternary" id="dxe-0"><path d="M68.5 7.6C60 7.6 53.1 14.5 53.1 23S60 38.4 68.5 38.4 83.9 31.5 83.9 23C83.8 14.5 76.9 7.6 68.5 7.6M73.7 30.6C72.7 33.7 71.1 35.9 69.3 36.4V29.9C70.8 29.9 72.3 30.2 73.7 30.6M78.3 32.3C76.8 33.8 75.1 35 73.1 35.7 74.1 34.5 74.9 32.9 75.5 31.1 76.7 31.5 77.7 32 78.3 32.3M69.3 28.1V23.8H74.8C74.7 25.6 74.5 27.3 74.2 28.9 72.6 28.4 71 28.2 69.3 28.1M74.9 22.1H69.4V17.5C71 17.5 72.7 17.2 74.2 16.8 74.6 18.4 74.8 20.2 74.9 22.1M75.4 14.5C74.8 12.8 74 11.3 73.1 10.1 75 10.8 76.7 11.9 78.1 13.3 77.2 13.8 76.3 14.2 75.4 14.5M69.3 15.7V9.5C71 10 72.6 12.1 73.6 15.1 72.3 15.4 70.8 15.6 69.3 15.7M82 23.8C81.8 26.4 80.9 28.8 79.4 30.9 78.8 30.6 77.5 30 75.9 29.4 76.3 27.7 76.6 25.8 76.6 23.8zM82 22.1H76.6C76.5 20 76.3 18.1 75.8 16.3 76.9 15.9 78.1 15.4 79.2 14.7 80.9 16.8 81.8 19.4 82 22.1M61 29.3C59.8 29.7 58.6 30.3 57.5 30.9 56 28.8 55.1 26.4 54.9 23.8H60.3C60.3 25.7 60.6 27.6 61 29.3M63.3 14.9C64.3 12 65.9 10 67.6 9.5V15.6C66.2 15.5 64.7 15.3 63.3 14.9M58.9 13.3C60.3 11.9 62 10.8 63.8 10.2 62.9 11.3 62.1 12.8 61.6 14.5 60.5 14 59.5 13.6 58.9 13.3M67.6 17.4V22.1H62.1C62.2 20.2 62.4 18.3 62.8 16.7 64.4 17 66 17.3 67.6 17.4M62.1 23.8H67.6V28C65.9 28 64.3 28.3 62.7 28.7 62.3 27.2 62.1 25.5 62.1 23.8M63.8 35.7C61.8 35 60 33.8 58.6 32.3 59.5 31.8 60.5 31.3 61.4 31 62.1 32.9 62.9 34.5 63.8 35.7M67.6 29.8V36.4C65.8 35.9 64.2 33.7 63.2 30.5 64.6 30.1 66.1 29.9 67.6 29.8M54.9 22.1C55.1 19.4 56 16.9 57.7 14.7 58.4 15 59.5 15.6 61.1 16.1 60.6 17.9 60.4 19.9 60.3 22.1z" fill="#000000" data-fill-palette-color="quaternary"></path><path d="M67.7 86.7C67.7 86.4 65.7 62.1 34.9 62.1 3.6 62.1 2 86.6 2 86.9V94.1C2 96.1 3.6 97.8 5.7 97.8H64C66 97.8 67.7 96.2 67.7 94.1z" fill="#000000" data-fill-palette-color="quaternary"></path><path d="M78.3 2.3H58.1C47.6 2.3 39 10.1 37.5 20.1 38.5 20.3 39.4 20.6 40.4 20.9 41.5 12.1 49 5.2 58.1 5.2H78.3C88.2 5.2 96.2 13.2 96.2 23.1S88.2 41 78.3 41H72.1L60.5 49.6V41H58.1C56.4 41 54.8 40.7 53.2 40.3V40.9C53.2 41.7 53.1 42.5 53.1 43.3 54.5 43.7 56 43.9 57.5 43.9V55.4L73 44H78.2C89.7 44 99 34.7 99 23.2 99.1 11.7 89.8 2.3 78.3 2.3" fill="#000000" data-fill-palette-color="quaternary"></path><path d="M34.1 58.9C43.1 58.9 50.4 50.8 50.4 40.9S43.1 22.9 34.1 22.9 17.8 31 17.8 40.9 25.1 58.9 34.1 58.9" fill="#000000" data-fill-palette-color="quaternary"></path></svg></g></svg></g></svg></g></svg></g><g></g></svg></g><defs></defs></svg><rect width="244.13452964181525" height="247.2" fill="none" stroke="none" visibility="hidden"></rect></g></svg></g></svg>